<svg id="Capa_1" enable-background="new 0 0 512 512" height="512" viewBox="0 0 512 512" width="512" xmlns="http://www.w3.org/2000/svg"><g><path d="m502.501 238.673c-12.66-12.66-33.185-12.66-45.845 0l-69.818 69.818h-35.849c0-.005 0-.011 0-.017 0 .017-182.91 25.944-182.91 25.944l-56.948 66.61 12.64 28.93 25.991 9.7 33.885-33.885 197.651-.001s73.774-73.797 121.212-121.253c12.657-12.662 12.652-33.185-.009-45.846z" fill="#ffcdbd"/><path d="m111.131 401.028 60.118-60.118h147.304c17.914 0 32.436-14.522 32.436-32.436 0-17.914-14.522-32.436-32.436-32.436h-81.139c-29.696-29.687-77.835-29.683-107.527.009l-71.869 71.869 18.556 39.744z" fill="#ffdece"/><path d="m432.2 65.45c0 36.08-30.66 78.48-114.71 131.1-84.04-52.62-114.7-95.02-114.7-131.1 0-36.14 29.31-65.45 65.46-65.45 19.64 0 37.25 8.66 49.24 22.36 12-13.7 29.61-22.36 49.25-22.36 36.15 0 65.46 29.31 65.46 65.45z" fill="#f1475d"/><path d="m432.2 65.45c0 36.08-30.66 78.48-114.71 131.1v-174.19c12-13.7 29.61-22.36 49.25-22.36 36.15 0 65.46 29.31 65.46 65.45z" fill="#de1f55"/><path d="m164.06 453.96-58.04 58.04-52.93-52.93-53.09-53.09 58.02-58.06z" fill="#696ea2"/><path d="m67.535 419.088h82.081v74.854h-82.081z" fill="#505381" transform="matrix(.707 -.707 .707 .707 -291.004 210.485)"/></g></svg>